<svg id="Layer_1" data-name="Layer 1" xmlns="http://www.w3.org/2000/svg" viewBox="0 0 754.11 354.37">
    <defs>
        <style>.cls-1,.cls-10,.cls-11,.cls-2,.cls-3,.cls-4,.cls-5,.cls-7,.cls-8{fill:none;}.cls-1{stroke:#999;stroke-width:0.25px;}.cls-10,.cls-2,.cls-3,.cls-4,.cls-9{stroke:#333;}.cls-3{stroke-dasharray:5.04 3.03;}.cls-4{stroke-dasharray:5.05 3.03;}.cls-5{stroke:#212529;}.annotation-2 cls-6{fill:#cbc9e2;}.cls-7{stroke:#54278f;stroke-width:2px;}.cls-8{stroke:gray;}.cls-9{fill:#333;}.cls-10,.cls-9{stroke-width:0.75px;}.cls-11{stroke:#000;}.cls-12{font-size:9.03px;font-family:BerninaSans, Bernina Sans;}.cls-13{letter-spacing:0em;}.cls-14{font-size:7.9px;font-family:BerninaSans-BoldItalic, Bernina Sans;font-weight:700;font-style:italic;}.cls-15{letter-spacing:-0.03em;}.cls-16{letter-spacing:0em;}.cls-17{letter-spacing:-0.01em;}.cls-18{letter-spacing:0em;}.cls-19{letter-spacing:-0.01em;}.cls-20{letter-spacing:0em;}.cls-21{letter-spacing:-0.01em;}.cls-22{letter-spacing:-0.02em;}.cls-23{letter-spacing:-0.02em;}.cls-24{letter-spacing:-0.02em;}.cls-25{letter-spacing:-0.01em;}.cls-26{letter-spacing:0em;}.cls-27{letter-spacing:-0.01em;}.cls-28{letter-spacing:-0.01em;}.cls-29{letter-spacing:-0.01em;}.cls-30{letter-spacing:-0.02em;}.cls-31{letter-spacing:0em;}.cls-32{letter-spacing:0em;}.cls-33{letter-spacing:0em;}.annotation-1{display:none;}.annotation-2{display:none;}.annotation-3{display:none;}.annotation-4{display:none;}.annotation-5{display:none;}</style>
    </defs>
    <line class="cls-1" x1="0.71" y1="46.42" x2="746.38" y2="46.42" />
    <line class="cls-1" x1="1.81" y1="142.45" x2="747.48" y2="142.45" />
    <line class="cls-1" y1="240.3" x2="745.67" y2="240.3" />
    <line class="cls-1" x1="0.71" y1="190.3" x2="746.38" y2="190.3" />
    <line class="cls-1" x1="0.44" y1="290.3" x2="746.11" y2="290.3" />
    <line class="annotation-4 cls-2" x1="409.41" y1="63.77" x2="409.41" y2="66.27" />
    <line class="annotation-4 cls-3" x1="409.41" y1="69.3" x2="409.41" y2="334.03" />
    <line class="annotation-4 cls-2" x1="409.41" y1="335.54" x2="409.41" y2="338.04" />
    <line class="annotation-1 cls-2" x1="150.29" y1="175.51" x2="150.29" y2="178.01" />
    <line class="annotation-1 cls-4" x1="150.29" y1="181.04" x2="150.29" y2="332.9" />
    <line class="annotation-1 cls-2" x1="150.29" y1="334.41" x2="150.29" y2="336.91" />
    <path class="cls-5" d="M37,359.83" transform="translate(-23 -21.67)" />
    <rect class="annotation-2 cls-6" x="9.83" y="337.44" width="9.9" height="0.71" />
    <polygon class="annotation-2 cls-6" points="21.84 338.16 31.73 338.16 31.73 338.16 21.84 338.16" />
    <polygon class="annotation-2 cls-6" points="34.2 338.16 44.09 338.16 44.09 338.16 34.2 338.16" />
    <polygon class="annotation-2 cls-6" points="46.56 338.16 56.44 338.16 56.44 338.16 46.56 338.16" />
    <polygon class="annotation-2 cls-6" points="59.33 337.44 69.23 337.44 69.23 337.44 59.33 337.44 59.33 337.44" />
    <rect class="annotation-2 cls-6" x="70.88" y="337.44" width="9.9" height="0.71" />
    <rect class="annotation-2 cls-6" x="84.08" y="337.44" width="9.9" height="0.71" />
    <rect class="annotation-2 cls-6" x="95.63" y="336.73" width="9.9" height="1.43" />
    <rect class="annotation-2 cls-6" x="108.83" y="336.73" width="9.9" height="0.71" />
    <rect class="annotation-2 cls-6" x="120.38" y="336.01" width="9.9" height="1.43" />
    <polygon class="annotation-2 cls-6" points="133.07 338.16 142.95 338.16 142.95 338.16 133.07 338.16" />
    <rect class="annotation-2 cls-6" x="145.13" y="336.01" width="9.9" height="2.14" />
    <rect class="annotation-2 cls-6" x="158.33" y="333.16" width="9.9" height="4.29" />
    <rect class="annotation-2 cls-6" x="169.88" y="331.73" width="9.9" height="6.43" />
    <rect class="annotation-2 cls-6" x="183.08" y="333.87" width="9.9" height="4.29" />
    <rect class="annotation-2 cls-6" x="194.63" y="333.16" width="9.9" height="4.29" />
    <rect class="annotation-2 cls-6" x="207.83" y="328.16" width="9.9" height="10" />
    <rect class="annotation-2 cls-6" x="219.38" y="321.01" width="9.9" height="17.14" />
    <rect class="annotation-2 cls-6" x="232.58" y="299.59" width="9.9" height="38.57" />
    <rect class="annotation-2 cls-6" x="244.13" y="324.59" width="9.9" height="13.57" />
    <rect class="annotation-2 cls-6" x="257.33" y="324.59" width="9.9" height="12.86" />
    <rect class="annotation-2 cls-6" x="268.88" y="303.16" width="9.9" height="35" />
    <rect class="annotation-2 cls-6" x="282.08" y="281.02" width="9.9" height="57.14" />
    <rect class="annotation-2 cls-6" x="293.63" y="281.73" width="9.9" height="55.71" />
    <rect class="annotation-2 cls-6" x="306.83" y="288.87" width="9.9" height="49.28" />
    <rect class="annotation-2 cls-6" x="318.38" y="231.02" width="9.9" height="107.14" />
    <rect class="annotation-2 cls-6" x="331.58" y="290.3" width="9.9" height="47.86" />
    <rect class="annotation-2 cls-6" x="343.13" y="292.44" width="9.9" height="45.71" />
    <rect class="annotation-2 cls-6" x="356.33" y="270.3" width="9.9" height="67.14" />
    <rect class="annotation-2 cls-6" x="367.88" y="128.88" width="9.9" height="209.28" />
    <rect class="annotation-2 cls-6" x="379.43" y="216.02" width="9.9" height="121.42" />
    <rect class="annotation-2 cls-6" x="392.63" y="203.88" width="9.9" height="134.28" />
    <rect class="annotation-2 cls-6" x="404.18" y="236.73" width="9.9" height="100.71" />
    <rect class="annotation-2 cls-6" x="417.38" y="257.45" width="9.9" height="80" />
    <rect class="annotation-2 cls-6" x="428.93" y="268.87" width="9.9" height="69.28" />
    <rect class="annotation-2 cls-6" x="442.13" y="180.3" width="9.9" height="157.14" />
    <rect class="annotation-2 cls-6" x="453.69" y="29.6" width="9.9" height="308.56" />
    <rect class="annotation-2 cls-6" x="466.89" y="136.02" width="9.9" height="202.14" />
    <rect class="annotation-2 cls-6" x="478.44" y="206.73" width="9.9" height="131.42" />
    <rect class="annotation-2 cls-6" x="491.64" y="150.31" width="9.9" height="187.85" />
    <rect class="annotation-2 cls-6" x="503.19" y="291.02" width="9.9" height="47.14" />
    <polygon class="annotation-2 cls-6" points="516.18 338.16 526.06 338.16 526.06 338.16 516.18 338.16" />
    <rect class="annotation-2 cls-6" x="527.94" y="141.02" width="9.9" height="197.14" />
    <rect class="annotation-2 cls-6" x="541.14" y="186.02" width="9.9" height="152.14" />
    <rect class="annotation-2 cls-6" x="552.69" y="208.88" width="9.9" height="129.28" />
    <rect class="annotation-2 cls-6" x="565.89" y="133.16" width="9.9" height="204.99" />
    <rect class="annotation-2 cls-6" x="577.44" y="142.45" width="9.9" height="195.71" />
    <rect class="annotation-2 cls-6" x="590.64" y="269.59" width="9.9" height="68.57" />
    <rect class="annotation-2 cls-6" x="602.19" y="221.02" width="9.9" height="116.42" />
    <rect class="annotation-2 cls-6" x="615.39" y="178.16" width="9.9" height="160" />
    <rect class="annotation-2 cls-6" x="626.94" y="194.59" width="9.9" height="142.85" />
    <rect class="annotation-2 cls-6" x="640.14" y="162.45" width="9.9" height="175.71" />
    <rect class="annotation-2 cls-6" x="651.69" y="182.45" width="9.9" height="155.71" />
    <rect class="annotation-2 cls-6" x="664.89" y="208.88" width="9.9" height="129.28" />
    <rect class="annotation-2 cls-6" x="676.44" y="212.45" width="9.9" height="125.71" />
    <rect class="annotation-2 cls-6" x="689.64" y="293.16" width="9.9" height="45" />
    <rect class="annotation-2 cls-6" x="701.19" y="189.59" width="9.9" height="148.57" />
    <rect class="annotation-2 cls-6" x="714.39" y="265.3" width="9.9" height="72.85" />
    <rect class="annotation-2 cls-6" x="725.94" y="204.59" width="9.9" height="133.57" />
    <path class="cls-7" d="M32.83,359.47H94.27c4.12.09,8.24-.08,12.36-.13s8.24,0,12.36-.08l12.36-.11c4.12,0,8.24-.07,12.36-.14s8.24-.25,12.36-.26h12.35c4.12,0,8.24-.1,12.36-.23s8.24-.34,12.36-.56,8.24-.57,12.36-.77,8.24-.25,12.36-.41,8.24-.24,12.36-.52,8.24-.56,12.36-1.16a78.46,78.46,0,0,0,12.35-2.46c4.12-1.28,8.24-4.39,12.36-5.23s8.24-.89,12.36-1.27,8.24-.33,12.36-1a46.27,46.27,0,0,0,12.36-4.38c4.12-2,8.24-5.18,12.36-7.53s8.23-4.72,12.35-6.59,8.24-2.2,12.36-4.6,8.24-7.33,12.36-9.78,8.24-3.34,12.36-4.94,8.24-3.08,12.36-4.63,8.24-1.55,12.36-4.66,8.23-16.53,12.35-21.72,8.24-5.81,12.36-9.39S423.83,254.8,428,254.8s8.24.88,12.36.88,8.24-3.27,12.36-4.6,8.24-1.13,12.36-3.39,8.24-8.37,12.35-12.87,8.24-9.87,12.36-14.14,8.24-11.5,12.36-11.5,8.24.42,12.36.42,8.24-12.43,12.36-12.43,8.24,2.3,12.36,4.74,8.24,9.89,12.36,9.89,8.23-5.68,12.35-5.68,8.24,16.87,12.36,22.33,8.24,10.42,12.36,10.42,8.24-9.74,12.36-10.48,8.24-.4,12.36-1.1,8.24-1,12.36-3.09,8.23-16.67,12.35-16.67,8.24,4.5,12.36,5.35a61.73,61.73,0,0,0,12.36,1.26c4.12,0,8.24-6.61,12.36-6.61s8.24,4.28,12.36,7,8.24,9.48,12.36,9.48,8.24-8.1,12.35-8.1,8.24,9.16,12.36,10.22,8.24.53,12.36,1.6,8.24,5.55,12.36,10" transform="translate(-23 -21.67)" />
    <polyline class="cls-8" points="746.11 338.61 0.97 338.61 0.97 0" />
    <ellipse class="annotation-1 cls-9" cx="150.29" cy="172.96" rx="3.66" ry="2.82" />
    <polyline class="annotation-1 cls-10" points="147.3 171.34 127.64 158.94 26.78 158.94" />
    <ellipse class="annotation-4 cls-9" cx="409.41" cy="61.64" rx="3.66" ry="2.82" />
    <polyline class="annotation-4 cls-10" points="407.1 58.82 387.44 46.42 286.58 46.42" />
    <path class="annotation-5 cls-11" d="M284.13,338.79c.13-7.52-1.3-22.35-13.58-31.22a33.57,33.57,0,0,0-10-4.89" transform="translate(-23 -21.67)" />
    <polygon class="annotation-5" points="264.19 316.4 260.85 321.49 258.11 316.06 264.19 316.4" />
    <line class="cls-1" y1="94.43" x2="745.67" y2="94.43" />
    <text class="annotation-1 cls-12" transform="translate(1.96 351.4)">Mar 8</text>
    <text class="annotation-1 cls-12" transform="translate(725.97 351.14)">Apr <tspan class="cls-13" x="17.77" y="0">2</tspan><tspan x="22.66" y="0">9</tspan></text>
    <text class="annotation-5 cls-14" transform="translate(208.3 279.67)">
        <tspan class="cls-15">7</tspan>
        <tspan class="cls-16" x="4.04" y="0">-d</tspan>
        <tspan class="cls-17" x="12.6" y="0">a</tspan>
        <tspan x="17.84" y="0">y </tspan>
        <tspan class="cls-17" x="0" y="9.48">a</tspan>
        <tspan x="5.24" y="9.48">ve</tspan>
        <tspan class="cls-18" x="14.09" y="9.48">r</tspan>
        <tspan x="17.46" y="9.48">age</tspan>
    </text>
    <text class="annotation-1 cls-12" transform="translate(26.61 145.64)">N<tspan class="cls-19" x="7.01" y="0">a</tspan><tspan class="cls-20" x="12.07" y="0">tional eme</tspan><tspan class="cls-21" x="58.28" y="0">r</tspan><tspan class="cls-22" x="61.67" y="0">g</tspan><tspan x="66.82" y="0">ency</tspan><tspan x="0" y="10.84">decla</tspan><tspan class="cls-23" x="22.83" y="10.84">r</tspan><tspan x="26.14" y="10.84">ed</tspan></text>
    <text class="annotation-4 cls-12" transform="translate(286.31 33.32)">Geo<tspan class="cls-21" x="17.24" y="0">r</tspan><tspan x="20.63" y="0">gia </tspan><tspan class="cls-24" x="36.11" y="0">S</tspan><tspan x="41.1" y="0">t</tspan><tspan class="cls-25" x="45.02" y="0">a</tspan><tspan class="cls-26" x="50.05" y="0">y </tspan><tspan class="cls-27" x="57.95" y="0">a</tspan><tspan x="63.02" y="0">t </tspan><tspan x="0" y="10.84">Home o</tspan><tspan class="cls-23" x="34" y="10.84">r</tspan><tspan x="37.32" y="10.84">der in </tspan><tspan class="cls-28" x="64.75" y="10.84">e</tspan><tspan class="cls-29" x="69.79" y="10.84">f</tspan><tspan class="cls-30" x="73.54" y="10.84">f</tspan><tspan x="77.16" y="10.84">ect</tspan></text>
    <text class="annotation-3 cls-12" transform="translate(9.54 42.16)">1,<tspan class="cls-31" x="5.81" y="0">5</tspan><tspan x="10.63" y="0">00 ca</tspan><tspan class="cls-32" x="34.4" y="0">se</tspan><tspan x="43.65" y="0">s</tspan></text>
    <text class="annotation-3 cls-12" transform="translate(9.14 284.4)">
        <tspan class="cls-32">2</tspan>
        <tspan class="cls-31" x="4.89" y="0">5</tspan>
        <tspan x="9.72" y="0">0 ca</tspan>
        <tspan class="cls-33" x="27.66" y="0">se</tspan>
        <tspan x="36.9" y="0">s</tspan>
    </text>
</svg>